# xmcd
#
# Track frame offsets:
#	150
#	11800
#	22542
#	37985
#	52717
#	71737
#	86855
#	92210
#	103517
#	122285
#	137480
#	157805
#	172872
#	178082
#	191390
#	199937
#	210890
#	223227
#	231310
#	247052
#	250740
#	267115
#	271197
#	280807
#	301702
#	311582
#	312987
#
# Disc length: 4672 seconds
#
# Revision: 3
# Processed by: cddbd v1.5.2PL0 Copyright (c) Steve Scherf et al.
# Submitted via: EasyCDDAExtractor 9.1.3.1
#
DISCID=64123e1b
DTITLE=Big Bill Broonzy - The Bill Broonzy Story - Disc 3
DYEAR=1957
DGENRE=Blues
TTITLE0=Dialogue
TTITLE1=Worried Life Blues
TTITLE2=Dialogue
TTITLE3=Trouble In Mind
TTITLE4=Dialogue
TTITLE5=Take This Hammer
TTITLE6=Dialogue
TTITLE7=The Glory Of Love
TTITLE8=Dialogue
TTITLE9=Louise Blues
TTITLE10=Dialogue
TTITLE11=Willie Mae Blues
TTITLE12=Dialogue
TTITLE13=Alberta
TTITLE14=Old Folks Home (Swanee River)
TTITLE15=Dialogue
TTITLE16=Crawdad Song
TTITLE17=Dialogue
TTITLE18=John Henry
TTITLE19=Dialogue
TTITLE20=Just A Dream (On My Mind)
TTITLE21=Dialogue
TTITLE22=Frankie And Johnny
TTITLE23=Dialogue
TTITLE24=Bill Bailey, Won't You Please Come Home?
TTITLE25=Dialogue
TTITLE26=Hollerin' The Blues
EXTD=YEAR: 1957  ID3G:   0
EXTT0=
EXTT1=
EXTT2=
EXTT3=
EXTT4=
EXTT5=
EXTT6=
EXTT7=
EXTT8=
EXTT9=
EXTT10=
EXTT11=
EXTT12=
EXTT13=
EXTT14=
EXTT15=
EXTT16=
EXTT17=
EXTT18=
EXTT19=
EXTT20=
EXTT21=
EXTT22=
EXTT23=
EXTT24=
EXTT25=
EXTT26=
PLAYORDER=
